<svg width="1247" height="443" viewBox="0 0 1247 443" fill="none" xmlns="http://www.w3.org/2000/svg">
<path d="M-0.000207007 315.392C20.4798 319.829 38.3998 322.048 53.7598 322.048H59.3918C67.2425 321.365 72.5331 318.293 75.2638 312.832C78.3358 307.37 79.8718 299.861 79.8718 290.304V15.3596L167.424 7.6796L218.624 33.2796V331.776C218.624 399.701 189.781 436.224 132.096 441.344C121.514 442.368 111.445 442.88 101.888 442.88C93.3545 442.88 85.3331 442.538 77.8238 441.856C70.3145 441.173 63.6585 440.32 57.8558 439.296L6.14379 413.696L-0.000207007 315.392ZM84.9918 19.9676V290.304C84.9918 301.568 83.1145 310.442 79.3598 316.928C75.6051 323.072 69.1198 326.485 59.9038 327.168H53.7598C46.9331 327.168 38.9118 326.656 29.6958 325.632C20.4798 324.608 12.4585 323.413 5.63179 322.048L11.2638 409.088C16.0425 409.77 21.6745 410.453 28.1598 411.136C34.6451 411.818 41.9838 412.16 50.1758 412.16C59.7331 412.16 69.8025 411.648 80.3838 410.624C134.997 406.186 162.304 371.37 162.304 306.176V13.3116L84.9918 19.9676ZM463.456 399.872L444.512 338.944L404.064 342.528L378.976 432.128L291.936 439.808L240.736 414.208L352.864 14.3356L437.344 7.1676L488.544 32.7676L602.72 418.304L514.656 425.472L463.456 399.872ZM356.96 19.4556L248.416 408.064L323.168 401.92L348.768 312.32L439.904 304.128L467.04 394.752L544.352 388.096L433.248 12.7996L356.96 19.4556ZM366.688 237.568C373.173 216.405 378.464 196.266 382.56 177.152C386.997 158.037 390.752 138.922 393.824 119.808H395.872C398.602 138.581 402.016 157.013 406.112 175.104C410.549 192.853 415.84 211.968 421.984 232.448L366.688 237.568ZM611.372 411.136V334.848L729.644 125.952L673.836 130.56L622.636 104.96V20.9916L857.644 -0.000396729L907.82 25.5996V96.2556L788.012 309.76L861.228 303.616L912.428 329.216V415.232L662.572 436.736L611.372 411.136ZM709.676 322.048L852.012 69.6316V5.63159L627.756 25.5996V99.3276L756.78 88.0636L616.492 336.384V406.016L856.108 385.024V309.248L709.676 322.048ZM945.372 411.136V334.848L1063.64 125.952L1007.84 130.56L956.636 104.96V20.9916L1191.64 -0.000396729L1241.82 25.5996V96.2556L1122.01 309.76L1195.23 303.616L1246.43 329.216V415.232L996.572 436.736L945.372 411.136ZM1043.68 322.048L1186.01 69.6316V5.63159L961.756 25.5996V99.3276L1090.78 88.0636L950.492 336.384V406.016L1190.11 385.024V309.248L1043.68 322.048Z" fill="black"/>
</svg>
