<svg width="512" height="512" viewBox="0 0 512 512" fill="none" xmlns="http://www.w3.org/2000/svg"><rect x="0.000105796" y="4.47605e-05" width="512" height="512" rx="80" fill="#FFFFFF"/><path d="M262.217 438.787C258.185 438.787 256.169 436.759 256.169 432.704L256.169 369.68C256.169 366.598 256.975 364.165 258.588 362.38L294.391 326.367C296.326 324.583 297.293 321.987 297.293 318.58L297.293 79.8705C297.293 75.8149 299.309 73.7872 303.341 73.7872L392.121 73.7872C396.153 73.7872 398.169 75.8149 398.169 79.8705L398.169 376.98C398.169 378.44 398.008 379.819 397.685 381.117C397.363 382.253 396.556 383.469 395.266 384.767L345.191 435.137C342.772 437.57 340.353 438.787 337.934 438.787L262.217 438.787Z" fill="black"/><path d="M250.079 73.7872C254.139 73.7872 256.169 75.815 256.169 79.8705L256.169 142.894C256.169 145.976 255.357 148.409 253.733 150.194L217.678 186.207C215.73 187.992 214.755 190.587 214.755 193.994L214.755 432.704C214.755 436.759 212.725 438.787 208.665 438.787L119.259 438.787C115.199 438.787 113.169 436.759 113.169 432.704L113.169 135.594C113.169 134.134 113.331 132.755 113.656 131.457C113.981 130.322 114.793 129.105 116.092 127.807L166.52 77.4371C168.956 75.0038 171.392 73.7871 173.828 73.7871L250.079 73.7872Z" fill="black"/></svg>